<svg width="172" height="134" viewBox="0 0 172 134" fill="none" xmlns="http://www.w3.org/2000/svg">
<g filter="url(#filter0_f_1_750)">
<path d="M68.1721 91.275H83.7494L74.7945 104.213L85.2651 104.408L63.288 130L68.6113 110.488H58.8646L68.1721 91.275Z" fill="url(#paint0_linear_1_750)"/>
<path d="M103.057 84.3576H113.606L107.542 93.1197L114.632 93.2514L99.7499 110.582L103.356 97.3689H96.7545L103.057 84.3576Z" fill="url(#paint1_linear_1_750)"/>
</g>
<g filter="url(#filter1_f_1_750)">
<path d="M48.4736 70.6687C62.0642 70.6687 73.0816 59.8291 73.0816 46.4578C73.0816 33.0864 62.0642 22.2468 48.4736 22.2468C34.883 22.2468 23.8657 33.0864 23.8657 46.4578C23.8657 59.8291 34.883 70.6687 48.4736 70.6687Z" fill="#FA9E42"/>
</g>
<g filter="url(#filter2_f_1_750)">
<path d="M48.4736 76.2685C65.2076 76.2685 78.7732 62.9218 78.7732 46.4578C78.7732 29.9938 65.2076 16.647 48.4736 16.647C31.7396 16.647 18.174 29.9938 18.174 46.4578C18.174 62.9218 31.7396 76.2685 48.4736 76.2685Z" stroke="#FA9E42" stroke-width="10" stroke-linecap="round" stroke-dasharray="1 66"/>
</g>
<g filter="url(#filter3_f_1_750)">
<path d="M45.8323 41.6235C54.451 37.1196 59.3263 29.5573 56.7217 24.7327C54.1172 19.9081 45.0189 19.6481 36.4003 24.152C27.7816 28.6559 22.9063 36.2181 25.5109 41.0427C28.1154 45.8673 37.2137 46.1273 45.8323 41.6235Z" fill="#F8E36F"/>
</g>
<g filter="url(#filter4_df_1_750)">
<g filter="url(#filter5_d_1_750)">
<path d="M92.7613 97.2727C92.114 97.3239 91.4603 97.3497 90.8003 97.3501H44.757C41.5877 97.3618 38.4472 96.7576 35.5157 95.5724C32.5842 94.3872 29.9195 92.6442 27.6742 90.4434C25.429 88.2426 23.6475 85.6273 22.4319 82.7476C21.2163 79.8679 20.5906 76.7803 20.5906 73.6621C20.5906 70.5439 21.2163 67.4564 22.4319 64.5766C23.6475 61.6969 25.429 59.0816 27.6742 56.8808C29.9195 54.6801 32.5842 52.9371 35.5157 51.7518C38.4472 50.5666 41.5877 49.9625 44.757 49.9741H61.9243C67.4901 37.9263 80.3086 29.4936 95.2318 29.4936C115.262 29.4936 131.5 44.6839 131.5 63.4219C131.5 82.1598 115.262 97.3501 95.2318 97.3501C94.4015 97.3501 93.578 97.3243 92.7613 97.2727Z" fill="url(#paint2_linear_1_750)"/>
<path d="M95.2317 97.0208C97.671 97.0208 100.109 96.7909 102.477 96.3375C104.785 95.8958 107.055 95.2366 109.224 94.3783C111.354 93.5357 113.407 92.4928 115.329 91.2786C117.231 90.076 119.021 88.6951 120.647 87.174C122.272 85.6533 123.748 83.98 125.033 82.2006C126.33 80.4046 127.444 78.4848 128.344 76.4943C129.26 74.4674 129.964 72.3464 130.436 70.1902C130.92 67.9777 131.165 65.7005 131.165 63.4217C131.165 61.1431 130.92 58.8658 130.436 56.6534C129.964 54.4972 129.26 52.3762 128.344 50.3494C127.444 48.3589 126.33 46.4391 125.033 44.6431C123.748 42.8638 122.272 41.1905 120.647 39.6697C119.021 38.1487 117.231 36.7677 115.329 35.5652C113.407 34.351 111.354 33.3081 109.224 32.4655C107.055 31.6072 104.785 30.948 102.477 30.5063C100.109 30.0529 97.671 29.823 95.2317 29.823C88.0766 29.823 81.1666 31.7837 75.2486 35.4932C72.3959 37.2812 69.8325 39.4395 67.6295 41.908C65.4125 44.3921 63.5955 47.1518 62.2289 50.1103L62.1397 50.3034H61.9241H44.7569C41.5516 50.3034 38.4424 50.921 35.5156 52.1389C34.1089 52.7243 32.7521 53.4489 31.4829 54.2925C30.2257 55.1282 29.0434 56.0879 27.969 57.145C26.8945 58.2021 25.9191 59.3653 25.0697 60.6023C24.2122 61.851 23.4758 63.1859 22.8808 64.57C21.6428 67.4495 21.0151 70.5086 21.0151 73.6621C21.0151 76.8156 21.6428 79.8747 22.8808 82.7542C23.4758 84.1382 24.2122 85.4732 25.0697 86.7219C25.9191 87.9589 26.8945 89.122 27.969 90.1792C29.0434 91.2363 30.2257 92.196 31.4829 93.0317C32.7521 93.8753 34.1089 94.5999 35.5156 95.1853C38.4424 96.4032 41.5516 97.0208 44.7569 97.0208H90.8004C91.4442 97.0208 92.0949 96.9951 92.7345 96.9444L92.7586 96.9425L92.7828 96.944C93.5928 96.9949 94.4167 97.0208 95.2317 97.0208ZM95.2317 97.3502C94.4015 97.3502 93.5776 97.3241 92.7614 97.2727C92.115 97.324 91.4602 97.3502 90.8004 97.3502H44.7569C31.4598 97.3502 20.6803 86.7446 20.6803 73.6621C20.6803 60.5796 31.4598 49.974 44.7569 49.974H61.9241C67.49 37.9248 80.3079 29.4936 95.2317 29.4936C115.262 29.4936 131.5 44.684 131.5 63.4217C131.5 82.1598 115.262 97.3502 95.2317 97.3502Z" fill="white" fill-opacity="0.5"/>
</g>
</g>
<defs>
<filter id="filter0_f_1_750" x="54.8646" y="80.3576" width="63.7677" height="53.6424" filterUnits="userSpaceOnUse" color-interpolation-filters="sRGB">
<feFlood flood-opacity="0" result="BackgroundImageFix"/>
<feBlend mode="normal" in="SourceGraphic" in2="BackgroundImageFix" result="shape"/>
<feGaussianBlur stdDeviation="2" result="effect1_foregroundBlur_1_750"/>
</filter>
<filter id="filter1_f_1_750" x="19.8657" y="18.2468" width="57.2159" height="56.4219" filterUnits="userSpaceOnUse" color-interpolation-filters="sRGB">
<feFlood flood-opacity="0" result="BackgroundImageFix"/>
<feBlend mode="normal" in="SourceGraphic" in2="BackgroundImageFix" result="shape"/>
<feGaussianBlur stdDeviation="2" result="effect1_foregroundBlur_1_750"/>
</filter>
<filter id="filter2_f_1_750" x="11.174" y="9.64703" width="74.5992" height="73.6215" filterUnits="userSpaceOnUse" color-interpolation-filters="sRGB">
<feFlood flood-opacity="0" result="BackgroundImageFix"/>
<feBlend mode="normal" in="SourceGraphic" in2="BackgroundImageFix" result="shape"/>
<feGaussianBlur stdDeviation="1" result="effect1_foregroundBlur_1_750"/>
</filter>
<filter id="filter3_f_1_750" x="4.80952" y="0.937103" width="72.6136" height="63.9013" filterUnits="userSpaceOnUse" color-interpolation-filters="sRGB">
<feFlood flood-opacity="0" result="BackgroundImageFix"/>
<feBlend mode="normal" in="SourceGraphic" in2="BackgroundImageFix" result="shape"/>
<feGaussianBlur stdDeviation="10" result="effect1_foregroundBlur_1_750"/>
</filter>
<filter id="filter4_df_1_750" x="0.590557" y="1.49362" width="170.909" height="127.857" filterUnits="userSpaceOnUse" color-interpolation-filters="sRGB">
<feFlood flood-opacity="0" result="BackgroundImageFix"/>
<feColorMatrix in="SourceAlpha" type="matrix" values="0 0 0 0 0 0 0 0 0 0 0 0 0 0 0 0 0 0 127 0" result="hardAlpha"/>
<feOffset dx="10" dy="2"/>
<feGaussianBlur stdDeviation="15"/>
<feColorMatrix type="matrix" values="0 0 0 0 0.258824 0 0 0 0 0.627451 0 0 0 0 0.941176 0 0 0 0.596 0"/>
<feBlend mode="normal" in2="BackgroundImageFix" result="effect1_dropShadow_1_750"/>
<feBlend mode="normal" in="SourceGraphic" in2="effect1_dropShadow_1_750" result="shape"/>
<feGaussianBlur stdDeviation="2" result="effect2_foregroundBlur_1_750"/>
</filter>
<filter id="filter5_d_1_750" x="0.590557" y="1.49362" width="170.909" height="127.857" filterUnits="userSpaceOnUse" color-interpolation-filters="sRGB">
<feFlood flood-opacity="0" result="BackgroundImageFix"/>
<feColorMatrix in="SourceAlpha" type="matrix" values="0 0 0 0 0 0 0 0 0 0 0 0 0 0 0 0 0 0 127 0" result="hardAlpha"/>
<feOffset dx="10" dy="2"/>
<feGaussianBlur stdDeviation="15"/>
<feColorMatrix type="matrix" values="0 0 0 0 0.501961 0 0 0 0 0.501961 0 0 0 0 0.501961 0 0 0 0.302 0"/>
<feBlend mode="normal" in2="BackgroundImageFix" result="effect1_dropShadow_1_750"/>
<feBlend mode="normal" in="SourceGraphic" in2="effect1_dropShadow_1_750" result="shape"/>
</filter>
<linearGradient id="paint0_linear_1_750" x1="69.636" y1="110.637" x2="57.3523" y2="106.06" gradientUnits="userSpaceOnUse">
<stop stop-color="#FFD100"/>
<stop offset="1" stop-color="#FFF0AA"/>
</linearGradient>
<linearGradient id="paint1_linear_1_750" x1="104.049" y1="97.4696" x2="95.7304" y2="94.3701" gradientUnits="userSpaceOnUse">
<stop stop-color="#FFD100"/>
<stop offset="1" stop-color="#FFF0AA"/>
</linearGradient>
<linearGradient id="paint2_linear_1_750" x1="65.5088" y1="38.0436" x2="86.9854" y2="101.244" gradientUnits="userSpaceOnUse">
<stop stop-color="white" stop-opacity="0.596"/>
<stop offset="1" stop-color="#F7F7F7" stop-opacity="0.204"/>
</linearGradient>
</defs>
</svg>
