<svg width="17" height="17" viewBox="0 0 17 17" fill="none" xmlns="http://www.w3.org/2000/svg">
<g clip-path="url(#clip0_6_81)">
<path d="M4.78833 3.42834L3.51333 2.16042L2.51458 3.15917L3.7825 4.42709L4.78833 3.42834ZM2.83333 7.4375H0.708328V8.85417H2.83333V7.4375ZM9.20833 0.389587H7.79166V2.47917H9.20833V0.389587ZM14.4854 3.15917L13.4867 2.16042L12.2187 3.42834L13.2175 4.42709L14.4854 3.15917ZM12.2117 12.8633L13.4796 14.1383L14.4783 13.1396L13.2033 11.8717L12.2117 12.8633ZM14.1667 7.4375V8.85417H16.2917V7.4375H14.1667ZM8.49999 3.89584C6.15541 3.89584 4.24999 5.80125 4.24999 8.14584C4.24999 10.4904 6.15541 12.3958 8.49999 12.3958C10.8446 12.3958 12.75 10.4904 12.75 8.14584C12.75 5.80125 10.8446 3.89584 8.49999 3.89584ZM7.79166 15.9021H9.20833V13.8125H7.79166V15.9021ZM2.51458 13.1325L3.51333 14.1313L4.78124 12.8563L3.7825 11.8575L2.51458 13.1325Z" fill="white" fill-opacity="0.57"/>
</g>
<defs>
<clipPath id="clip0_6_81">
<rect width="17" height="17" fill="white"/>
</clipPath>
</defs>
</svg>
